<?xml version="1.0" encoding="UTF-8"?>
<svg width="1156px" height="372px" viewBox="0 0 1156 372" version="1.1" xmlns="http://www.w3.org/2000/svg" xmlns:xlink="http://www.w3.org/1999/xlink">
    <title>logo</title>
    <defs>
        <radialGradient cx="56.5285203%" cy="55.711742%" fx="56.5285203%" fy="55.711742%" r="65.9699579%" gradientTransform="translate(0.565285,0.557117),scale(1.000000,0.833333),rotate(126.331010),translate(-0.565285,-0.557117)" id="radialGradient-1">
            <stop stop-color="#FFFFFF" offset="0%"></stop>
            <stop stop-color="#FFCA00" offset="100%"></stop>
        </radialGradient>
        <radialGradient cx="50%" cy="43.1210101%" fx="50%" fy="43.1210101%" r="93.2401857%" gradientTransform="translate(0.500000,0.431210),scale(1.000000,0.634146),rotate(74.146842),translate(-0.500000,-0.431210)" id="radialGradient-2">
            <stop stop-color="#FFFFFF" offset="0%"></stop>
            <stop stop-color="#E70488" offset="100%"></stop>
        </radialGradient>
    </defs>
    <g id="logo" stroke="none" stroke-width="1" fill="none" fill-rule="evenodd">
        <g id="Group" transform="translate(6.974945, 11.000000)">
            <rect id="Rectangle" fill="#150458" x="85.0250547" y="0" width="29" height="142"></rect>
            <rect id="Rectangle" fill="#150458" x="143.705732" y="142" width="29" height="150"></rect>
            <rect id="Rectangle" fill="#150458" x="22.7057322" y="142" width="29" height="86"></rect>
            <rect id="Rectangle" fill="#150458" transform="translate(97.705732, 148.500000) rotate(90.000000) translate(-97.705732, -148.500000) " x="83.2057322" y="73.5" width="29" height="150"></rect>
            <path d="M49.398903,230.143476 C50.9501625,229.899853 52.5298855,229.957176 54.0882606,230.387098 C56.8278707,231.146626 59.1689916,232.988124 61.0404653,235.152063 C63.2250366,237.67427 64.8688029,240.676556 65.8152128,243.886638 C67.160113,248.493966 67.0747219,253.373577 66.9751002,258.167202 C66.8612461,263.756184 66.7473919,269.345167 66.6264224,274.934146 C66.5339161,279.684782 66.3987141,284.593053 64.3991556,288.892273 C59.2116863,300.034404 46.6521775,298.357715 36.5761064,300.371176 C31.7301995,301.352831 26.6423536,302.771572 21.611434,301.488973 C13.6416595,299.432517 6.10595393,292.374639 7.11640878,283.826361 C9.0163438,267.790283 23.5398339,264.229097 30.3212577,251.797197 C33.1106782,246.688294 35.1956277,241.120808 38.8816481,236.628127 C41.5429836,233.389384 45.3784369,230.766862 49.398903,230.143476 Z" id="7" stroke="#000000" stroke-width="4" fill="url(#radialGradient-1)" transform="translate(37.025055, 266.000000) rotate(-92.000000) translate(-37.025055, -266.000000) "></path>
            <path d="M129.07501,302.272663 C128.397725,292.963518 134.700046,291.743699 142.34268,286.700353 C148.345571,282.734158 154.191616,280.137586 161.563337,281.26467 C167.673166,282.213417 174.781099,284.310651 178.502608,291.130222 C184.441332,301.980191 178.531123,313.878776 174.702679,323.722929 C170.524896,334.515831 179.465065,349.574532 168.279159,358.284469 C158.889841,365.596246 145.180152,363.042475 141.066532,359.711156 C127.449525,348.697117 144.403056,337.240806 136.845973,323.088053 C134.122571,317.96624 129.859236,308.628561 129.067881,303.20001 L129.07501,302.272663 Z" id="12" stroke="#000000" stroke-width="4" fill="url(#radialGradient-2)" transform="translate(155.025055, 322.000000) rotate(-92.000000) translate(-155.025055, -322.000000) "></path>
        </g>
        <text id="scphylo-tools" fill="#130754" fill-rule="nonzero" font-family="Helvetica-Bold, Helvetica" font-size="140" font-weight="bold">
            <tspan x="238" y="218">scphylo-tools</tspan>
        </text>
    </g>
</svg>
